<svg width="50" height="50" viewBox="0 0 50 50" fill="none" xmlns="http://www.w3.org/2000/svg">
<path d="M36.5 5.15033H44C44.8333 5.15033 46.5 5.65033 46.5 7.65033C46.5 8.26898 46.5 10.3413 46.5 13.1504M46.5 35.0092C46.5 29.3687 46.5 19.4227 46.5 13.1504M11 5.15033H3.5C2.66667 5.15033 1 5.65033 1 7.65033C1 9.65033 1 31.817 1 42.6503C1.16667 43.4837 1.9 45.1503 3.5 45.1503C5.1 45.1503 12.5 45.1503 16 45.1503M19 45.1503H20.5M24 45.1503H33.3928M32.5 4.90033V3.65033C34.5 -1.14972 36 1.65031 36.5 3.65033V6.15033C34.9 11.7503 33.1667 8.48364 32.5 6.15033V4.90033ZM32.5 4.90033H15M15 4.90033V6.15033C13.4 11.7503 11.6667 8.48366 11 6.15033V3.65033C13 -1.14967 14.5 1.65033 15 3.65033V4.90033ZM42 33.1661C43.9292 33.5041 45.4582 34.3243 46 34.6503C48.9308 36.4141 51.5434 43.941 46 47.6503C41.6993 50.5281 37.6236 48.8741 35.5 47.6503C33.5521 46.5278 32.4317 43.5924 32.5977 40.6504M42 33.1661C40.041 32.8228 37.6694 32.9768 35.5 34.6503C35.2299 34.8587 34.9801 35.0842 34.75 35.3244M42 33.1661V32.9004M32.5977 40.6504H27.5M32.5977 40.6504C32.7076 38.7036 33.3807 36.7538 34.75 35.3244M27.5 40.6504V17.6504M27.5 40.6504H20M27.5 17.6504H34.75M27.5 17.6504H20M34.75 17.6504H42V25.1504M34.75 17.6504V35.3244M20 17.6504V40.6504M20 17.6504H12.75M20 40.6504H12.75M12.75 17.6504H5.5V25.1504M12.75 17.6504V40.6504M12.75 40.6504H5.5V32.9004M5.5 25.1504H42M5.5 25.1504V32.9004M42 25.1504V32.9004M5.5 32.9004H42M46.5 13.1504H8M5.5 13.1504H4M38.5 40.6504L40.5 42.6503L44.5 39.1504" stroke="white"/>
</svg>
