<svg width="51" height="38" viewBox="0 0 51 38" fill="none" xmlns="http://www.w3.org/2000/svg">
<path d="M4.71167 31.2577C5.83587 32.0446 7.26364 32.3252 8.21188 32.3252H10.2117V37.3252H4.71167V31.2577Z" fill="black"/>
<path d="M41.2117 32.3252H42.2119C44.7029 32.5743 46.289 31.9315 47.2117 31.1694V37.3252H44.2117H41.2117V32.3252Z" fill="black"/>
<path d="M4.71167 31.2577C5.83587 32.0446 7.26364 32.3252 8.21188 32.3252H10.2117V37.3252H4.71167V31.2577Z" stroke="black"/>
<path d="M41.2117 32.3252H42.2119C44.7029 32.5743 46.289 31.9315 47.2117 31.1694V37.3252H44.2117H41.2117V32.3252Z" stroke="black"/>
<path d="M3.21188 18.3251C5.48038 11.9776 7.51186 8.52018 12.2119 2.32516C17.0452 1.32516 29.2119 -0.074836 39.2119 2.32516C43.8289 8.15725 45.7331 11.5986 48.2119 18.3251C48.8785 20.3252 49.8119 25.4252 48.2119 29.8252C48.0861 30.2024 47.7706 30.7077 47.2117 31.1694C46.289 31.9314 44.7029 32.5742 42.2119 32.3251H41.2117H10.2117H8.21188C7.26364 32.3251 5.83587 32.0445 4.71167 31.2576C4.05754 30.7997 3.50619 30.1704 3.21188 29.3252C2.31047 26.7364 1.37011 25.1094 3.21188 18.3251Z" fill="#ED2626" stroke="#ED2626"/>
<path d="M50.2117 11.3268C48.9854 12.0311 47.8148 12.0835 45.7117 12.293C45.5541 11.9661 45.3942 11.6445 45.2312 11.3268C46.0142 10.7666 46.3059 10.3192 46.7117 9.32952C47.8827 9.03789 48.5401 8.91107 49.7117 9.32952C50.4824 9.88572 50.5946 10.3127 50.2117 11.3268Z" fill="black"/>
<path d="M4.21164 9.32952C4.82953 10.4148 5.29825 10.7987 6.21954 11.3268C6.05036 11.6463 5.88545 11.9679 5.72401 12.293C3.03304 12.2551 1.65773 12.1851 1.21164 11.3268C0.845422 10.4098 0.919386 9.94401 1.71164 9.32952C2.68254 8.95481 3.23456 8.94857 4.21164 9.32952Z" fill="black"/>
<path d="M50.2117 11.3268C48.9854 12.0311 47.8148 12.0835 45.7117 12.293C45.5541 11.9661 45.3942 11.6445 45.2312 11.3268C46.0142 10.7666 46.3059 10.3192 46.7117 9.32952C47.8827 9.03789 48.5401 8.91107 49.7117 9.32952C50.4824 9.88572 50.5946 10.3127 50.2117 11.3268Z" stroke="black"/>
<path d="M4.21164 9.32952C4.82953 10.4148 5.29825 10.7987 6.21954 11.3268C6.05036 11.6463 5.88545 11.9679 5.72401 12.293C3.03304 12.2551 1.65773 12.1851 1.21164 11.3268C0.845422 10.4098 0.919386 9.94401 1.71164 9.32952C2.68254 8.95481 3.23456 8.94857 4.21164 9.32952Z" stroke="black"/>
<path d="M12.7117 2.82691C10.2083 6.41005 9.11761 8.28358 7.71167 11.3269C21.2798 12.4241 29.1491 12.4013 43.7117 11.3269C42.1834 7.7124 40.9309 5.86692 38.2117 2.82691C29.057 1.70479 23.5374 1.60718 12.7117 2.82691Z" fill="black"/>
<path d="M17.2117 23.3252C16.7705 22.5875 16.815 22.1465 17.2117 21.3252C23.7592 20.7736 27.4954 20.8618 34.2117 21.3252C34.6315 22.0303 34.7286 22.4498 34.2117 23.3252C27.497 23.7504 23.7597 23.7333 17.2117 23.3252Z" fill="black"/>
<path d="M34.2117 26.3252C27.6468 25.9141 23.9493 25.7851 17.2117 26.3252L15.2117 27.8252C14.7969 28.9531 14.7967 29.6171 15.2117 30.8252C23.4146 31.2221 28.0082 31.1814 36.2117 30.8252C36.6626 29.5198 36.6028 28.8788 36.2117 27.8252L34.2117 26.3252Z" fill="black"/>
<path d="M12.7117 2.82691C10.2083 6.41005 9.11761 8.28358 7.71167 11.3269C21.2798 12.4241 29.1491 12.4013 43.7117 11.3269C42.1834 7.7124 40.9309 5.86692 38.2117 2.82691C29.057 1.70479 23.5374 1.60718 12.7117 2.82691Z" stroke="black"/>
<path d="M17.2117 23.3252C16.7705 22.5875 16.815 22.1465 17.2117 21.3252C23.7592 20.7736 27.4954 20.8618 34.2117 21.3252C34.6315 22.0303 34.7286 22.4498 34.2117 23.3252C27.497 23.7504 23.7597 23.7333 17.2117 23.3252Z" stroke="black"/>
<path d="M34.2117 26.3252C27.6468 25.9141 23.9493 25.7851 17.2117 26.3252L15.2117 27.8252C14.7969 28.9531 14.7967 29.6171 15.2117 30.8252C23.4146 31.2221 28.0082 31.1814 36.2117 30.8252C36.6626 29.5198 36.6028 28.8788 36.2117 27.8252L34.2117 26.3252Z" stroke="black"/>
<path d="M16.7117 20.8296C14.7242 16.9464 12.7141 14.8751 7.71167 11.3296C21.4378 12.4109 29.3189 12.415 43.7117 11.3296C39.0471 14.8002 37.0142 16.8596 34.7117 20.8296M16.7117 20.8296C22.8836 19.8865 26.8691 19.9354 34.7117 20.8296M16.7117 20.8296C16.5829 23.224 15.7518 24.0255 12.7117 24.3296H1.71167M34.7117 20.8296C34.8817 23.1915 35.7094 23.9921 38.7117 24.3296C38.7117 24.3296 50.2117 24.3296 49.7117 24.3296" stroke="#B30000"/>
<path d="M46.2116 17.3252C39.9182 18.3056 37.5067 19.2738 36.7116 22.3252C40.0704 23.2058 42.1828 23.1198 46.2116 22.3252C47.275 20.039 47.3094 18.9391 46.2116 17.3252Z" fill="white"/>
<path d="M5.71162 22.3252C4.31266 20.3063 4.4337 19.3428 5.71162 17.8252C10.8628 18.3384 13.1019 19.1142 14.7116 22.3252C11.123 22.9956 9.12754 23.2151 5.71162 22.3252Z" fill="white"/>
<path d="M46.2116 17.3252C39.9182 18.3056 37.5067 19.2738 36.7116 22.3252C40.0704 23.2058 42.1828 23.1198 46.2116 22.3252C47.275 20.039 47.3094 18.9391 46.2116 17.3252Z" stroke="white"/>
<path d="M5.71162 22.3252C4.31266 20.3063 4.4337 19.3428 5.71162 17.8252C10.8628 18.3384 13.1019 19.1142 14.7116 22.3252C11.123 22.9956 9.12754 23.2151 5.71162 22.3252Z" stroke="white"/>
<path d="M9.71167 28.3252C9.68225 26.8324 9.28396 26.357 7.71167 26.3252C6.30527 26.3632 5.7728 26.6894 5.71167 28.3252C5.73041 29.7548 5.99003 30.3432 7.71167 30.3252C9.21754 30.2653 9.67004 29.8389 9.71167 28.3252Z" fill="white"/>
<path d="M44.2117 26.3252C42.7529 26.3493 42.2462 26.7091 42.2119 28.3252C42.2071 29.877 42.6614 30.3075 44.2117 30.3252C45.759 30.3119 46.205 29.8793 46.2117 28.3252C46.1832 26.6041 45.6026 26.3433 44.2117 26.3252Z" fill="white"/>
<path d="M9.71167 28.3252C9.68225 26.8324 9.28396 26.357 7.71167 26.3252C6.30527 26.3632 5.7728 26.6894 5.71167 28.3252C5.73041 29.7548 5.99003 30.3432 7.71167 30.3252C9.21754 30.2653 9.67004 29.8389 9.71167 28.3252Z" stroke="#39005C"/>
<path d="M44.2117 26.3252C42.7529 26.3493 42.2462 26.7091 42.2119 28.3252C42.2071 29.877 42.6614 30.3075 44.2117 30.3252C45.759 30.3119 46.205 29.8793 46.2117 28.3252C46.1832 26.6041 45.6026 26.3433 44.2117 26.3252Z" stroke="#39005C"/>
</svg>
