<svg width="27" height="31" viewBox="0 0 27 31" fill="none" xmlns="http://www.w3.org/2000/svg">
<path d="M11.8833 9H3.8833C3.04997 9.16667 1.3833 10 1.3833 12C1.3833 14 1.3833 22.8333 1.3833 27C1.3833 28 1.8833 30 3.8833 30C5.8833 30 17.3833 30 22.8833 30C23.8833 30 25.8833 29.4 25.8833 27C25.8833 24.6 25.8833 16 25.8833 12C25.8833 11 25.2833 9 22.8833 9C20.4833 9 16.8833 9 15.3833 9M15.3833 9V7.5C15.7166 7 16.3833 5.7 16.3833 4.5C16.3833 3.3 15.7166 1.66667 15.3833 1H11.8833C11.55 1.33333 10.8833 2.5 10.8833 4.5C10.8833 6.5 11.55 7.33333 11.8833 7.5V18M15.3833 9V18M15.3833 18H18.8833V14C19.2166 13.3333 20.1833 12.4 21.3833 14V25C21.05 25.8333 20.0833 27 18.8833 25V21H15.3833M15.3833 18V21M15.3833 21V24.5C14.8833 25.8333 13.4833 27.7 11.8833 24.5V21M11.8833 21H8.3833V25C8.04997 25.8333 7.0833 27 5.8833 25V14C6.21663 13.3333 7.1833 12.4 8.3833 14V18H11.8833M11.8833 21V18" stroke="#A70405"/>
</svg>
