<svg width="25" height="29" viewBox="0 0 25 29" fill="none" xmlns="http://www.w3.org/2000/svg">
<path d="M2.38327 10.5V26C-0.0167305 27.6 1.38327 28 2.38327 28C6.54994 28 15.5833 28 18.3833 28C21.1833 28 19.5499 26.6667 18.3833 26V17.5M2.38327 10.5V2.5C2.38328 2 2.7833 1 4.3833 1C5.9833 1 13.05 1 16.3833 1C17.05 1 18.3833 1.3 18.3833 2.5V6M2.38327 10.5C2.54995 11 3.1833 12 4.3833 12C5.5833 12 12.8833 12 16.3833 12C17.05 12 18.3833 11.7 18.3833 10.5M18.3833 10.5V16.5M18.3833 10.5V7M18.3833 6H21.3833C22.2166 6 23.8833 6.5 23.8833 8.5C23.8833 10.5 23.8833 18.6667 23.8833 22.5C23.8833 23 23.5833 24 22.3833 24C21.1833 24 20.55 23 20.3833 22.5V19C20.3833 18.5 19.9832 17.5 18.3833 17.5M18.3833 6V7M18.3833 17.5V16.5M18.3833 16.5C19.3833 16.5 21.3833 17 21.3833 19C21.3833 21 21.3833 22.1667 21.3833 22.5C21.7166 23 22.4833 23.7 22.8833 22.5V12C22.8833 11.7224 22.8756 11.3676 22.8559 11M20.8833 9C21.2166 9 21.9833 9 22.3833 9C22.6722 9 22.8046 10.0436 22.8559 11M20.8833 9C20.8833 8.33333 20.3832 7 18.3833 7M20.8833 9C20.865 9.66667 21.234 11 22.8559 11M6.8833 4H14.8833C15.3833 4 16.3833 4.3 16.3833 5.5C16.3833 6.7 16.3833 7.66667 16.3833 8C16.3833 8.33333 16.0833 9 14.8833 9C13.6833 9 9.21663 9 6.8833 9C6.54997 9 5.3833 8.8 5.3833 8C5.3833 7.2 5.3833 6 5.3833 5.5C5.3833 5 6.0833 4 6.8833 4ZM13.8833 19C13.8833 18 13.3833 16 11.3833 16C9.3833 16 9.54997 16 9.8833 16C9.04997 16.1667 7.3833 17 7.3833 19C7.3833 21 7.3833 20.8333 7.3833 20.5C7.3833 21.3333 7.8833 23 9.8833 23C11.8833 23 11.7166 23 11.3833 23C12.2166 23 13.8833 22.5 13.8833 20.5C13.8833 18.5 13.8833 18.6667 13.8833 19ZM10.8833 18C11.7166 19 12.8833 21 10.8833 21C10.05 21 8.8833 20.4 10.8833 18Z" stroke="#A70405"/>
</svg>
