<svg width="31" height="25" viewBox="0 0 31 25" fill="none" xmlns="http://www.w3.org/2000/svg">
<path d="M21.3834 20.4998H9.38344M21.3834 20.4998C21.3834 23.9998 23.3834 23.4998 25.3834 23.4998C29.3834 23.4998 29.3834 23.4998 29.3834 19.0333C29.5077 18.6293 29.6413 19.5955 29.7661 19.0333M21.3834 20.4998L22.3834 19.0333H29.7661M9.38344 20.4998C9.38344 24 7.88342 23.4998 5.38344 23.4998C1.88344 23.4998 1.88344 23.4998 1.88344 19.0333C1.88344 18.5124 1.4712 19.541 1.337 19.0333M9.38344 20.4998L8.88342 19.0333H1.337M1.88344 10.9998C3.88345 6.66642 6.88342 0.999978 9.38344 0.999756H21.3834C24.3834 0.999756 27.3834 7.99978 29.3834 10.9998M1.88344 10.9998C6.5501 8.66642 16.8834 6 29.3834 10.9998M1.88344 10.9998C1.70226 11.498 1.50137 12.1908 1.337 12.9998M29.3834 10.9998C29.7661 11.5737 29.7661 11.5 30.1212 12.9998M30.1212 16.9998H22.3834C23.0419 15.3353 25.5114 12.2023 30.1212 12.9998M30.1212 16.9998C30.2895 15.671 30.3397 14.2405 30.1212 12.9998M30.1212 16.9998C30.0297 17.722 29.9032 18.4151 29.7661 19.0333M1.02284 16.9998H8.88342C8.51914 15.6664 6.49986 12.9998 1.337 12.9998M1.02284 16.9998C0.938112 15.5813 1.09941 14.1691 1.337 12.9998M1.02284 16.9998C1.06377 17.685 1.16211 18.3718 1.337 19.0333M22.3834 12.9998H8.88342C9.38342 14.3331 10.9834 16.9998 13.3834 16.9998C15.7834 16.9998 17.3834 16.9998 17.8834 16.9998C18.8834 16.8331 21.1834 15.7998 22.3834 12.9998Z" stroke="#A70405"/>
</svg>
