<svg width="28" height="31" viewBox="0 0 28 31" fill="none" xmlns="http://www.w3.org/2000/svg">
<path d="M18.8834 7H9.38337M18.8834 7C18.8834 4.6 17.2167 4 16.3834 4M18.8834 7L19.3834 7.58333M20.3834 25.5V22.5L23.8834 15.8888M20.3834 25.5C20.3834 26.1667 19.9834 27.5 18.3834 27.5C18.2265 27.5 18.0593 27.5 17.8834 27.5M20.3834 25.5C21.9834 25.5 23.05 24.5 23.3834 24C23.7167 23.5 24.5834 22 25.3834 20C26.1835 18 24.7168 16.4259 23.8834 15.8888M9.38337 7C9.38337 6 9.78337 4 11.3834 4M9.38337 7L8.8417 7.58333M7.38337 25.5V22.5L3.88332 15.8888M7.38337 25.5C7.38337 26.1667 7.68337 27.5 8.88337 27.5C9.00622 27.5 9.17553 27.5 9.38337 27.5M7.38337 25.5C5.78337 25.5 4.71671 24.5 4.38337 24C4.06393 23.5 3.21672 22 2.38342 20C1.55013 18 3.03615 16.4259 3.88332 15.8888M11.3834 4C12.9834 4 15.3834 4 16.3834 4M11.3834 4V1H16.3834V4M19.3834 7.58333L21.3834 6C21.7167 5.66667 22.5834 5.2 23.3834 6C24.1834 6.8 25.7167 8.66667 26.3834 9.5C26.7167 9.83333 27.1834 10.7 26.3834 11.5C25.5834 12.3 24.7167 13.1111 24.3834 13.4167M19.3834 7.58333L24.3834 13.4167M24.3834 13.4167L24.8834 14L23.8834 15.8888M8.8417 7.58333L6.38337 6C6.05004 5.66667 5.18337 5.2 4.38337 6C3.58337 6.8 2.05004 8.66667 1.38337 9.5C1.05004 9.83333 0.583372 10.7 1.38337 11.5C2.18337 12.3 3.07782 13.1111 3.42504 13.4167M8.8417 7.58333L3.42504 13.4167M3.42504 13.4167L2.88337 14L3.88332 15.8888M9.38337 27.5V29C9.38339 29.3333 9.68342 30 10.8834 30C12.0834 30 15.3834 30 16.8834 30C17.2168 30 17.8834 29.8 17.8834 29C17.8834 28.2 17.8834 27.6667 17.8834 27.5M9.38337 27.5C11.0863 27.5 15.3753 27.5 17.8834 27.5M17.3834 21C17.3834 19.4 15.3834 19 14.3834 19H12.8834C12.0501 19 10.3834 19.4 10.3834 21C10.3834 22.6 10.3834 24.2183 10.3834 24.8274M17.3834 21C17.3834 22.6 17.3834 24 17.3834 24.5C17.3834 25 16.9834 26 15.3834 26C13.7834 26 12.0501 26 11.3834 26C11.098 25.7147 10.7517 25.3179 10.3834 24.8274M17.3834 21V11M7.38337 16.5C9.92455 16.5 10.4422 15.1667 10.3834 14.5C10.0183 13.6482 9.12014 12.5475 7.88342 13.1055M7.38337 16.5C6.21671 16.1 6.23059 15 6.38337 14.5C6.92307 13.7444 7.42637 13.3117 7.88342 13.1055M7.38337 16.5C7.38337 19.9584 9.03086 23.0256 10.3834 24.8274M7.88342 13.1055C9.55006 11.9037 13.5833 9.5 16.3834 9.5M16.3834 9.5C16.7167 9.5 17.3834 9.8 17.3834 11M16.3834 9.5C16.0501 9.5 15.3834 9.8 15.3834 11C15.3834 12.2 16.0501 12.5 16.3834 12.5C16.7167 12.5 17.3834 12.2 17.3834 11" stroke="#A70405"/>
</svg>
