<svg width="23" height="31" viewBox="0 0 23 31" fill="none" xmlns="http://www.w3.org/2000/svg">
<path d="M16.3833 9.5C17.0147 9.5 17.4592 9.29236 17.766 9M7.3833 9.5C6.75191 9.5 6.30738 9.29236 6.00057 9M17.766 9C18.2367 8.55149 18.3833 7.90359 18.3833 7.5C18.3833 6.33333 18.3833 3.7 18.3833 2.5C18.3833 1.3 16.7166 1 15.8833 1H7.8833C7.04997 1 5.3833 1.3 5.3833 2.5C5.3833 3.7 5.3833 6.33333 5.3833 7.5C5.3833 7.90359 5.52989 8.55149 6.00057 9M17.766 9C18.6385 9 20.3833 9.6 20.3833 12C20.3833 14.4 20.3833 19 20.3833 21M20.3833 21C21.05 21 22.3833 21.4 22.3833 23C22.3833 24.6 22.3833 24 22.3833 23.5C22.3833 24.1667 21.9833 25.5 20.3833 25.5H18.5705M20.3833 21H16.6958M6.00057 9C5.12815 9 3.3833 9.6 3.3833 12C3.3833 14.4 3.3833 19 3.3833 21M3.3833 21C2.71663 21 1.3833 21.4 1.3833 23C1.3833 24.6 1.3833 24 1.3833 23.5C1.3833 24.1667 1.6833 25.5 2.8833 25.5H5.4618M3.3833 21H6.8833M13.8833 10.5H15.8833C16.7166 10.5 18.3833 10.9 18.3833 12.5C18.3833 14.1 18.3833 16.8333 18.3833 18C18.2583 18.5 17.7458 19.5 16.6958 19.5M13.8833 10.5C14.3833 10.3333 15.3833 9.6 15.3833 8C15.3833 6.4 15.3833 6.33333 15.3833 6.5C15.3833 5.66667 14.8833 4 12.8833 4C10.8833 4 10.7166 4 10.8833 4C8.8833 4 8.3833 5.66667 8.3833 6.5C8.3833 6.33333 8.3833 6.4 8.3833 8C8.3833 9.6 9.71663 10.3333 10.3833 10.5M13.8833 10.5H10.3833M10.3833 10.5H7.8833C7.04997 10.5 5.3833 10.9 5.3833 12.5C5.3833 14.1 5.3833 16.8333 5.3833 18C5.3833 18.5 5.6833 19.5 6.8833 19.5M11.8833 20.5C11.8833 19.6667 11.3833 18 9.3833 18C9.04352 18 8.70855 18.1924 8.3833 18.5282M11.8833 20.5C12.05 19.6667 12.7833 18 14.3833 18C14.6921 18 15.0307 18.2483 15.3833 18.6731M11.8833 20.5L9.82448 25.5M11.8833 20.5L13.8833 25.3571M8.3833 13V18.5282M8.3833 18.5282C7.20376 19.746 6.15197 22.8495 5.4618 25.5M15.3833 13V18.6731M15.3833 18.6731C16.4666 19.9782 17.6819 22.9489 18.5705 25.5M5.4618 25.5C5.22207 26.4207 5.02597 27.2867 4.8833 28C5.04997 29.3333 5.9833 31.4 8.3833 29L9.82448 25.5M9.82448 25.5L13.8833 25.3571M13.8833 25.3571L15.3833 29C18.1833 31.8 19.2166 29.5 19.3833 28C19.1693 27.2867 18.8912 26.4207 18.5705 25.5" stroke="#A70405"/>
</svg>
