<svg width="218" height="66" viewBox="0 0 218 66" fill="none" xmlns="http://www.w3.org/2000/svg">
<path d="M217 49.1408C208.342 44.852 186.251 36.1964 167.149 35.8845C153.324 29.2563 121.822 16 106.405 16C87.1351 16 61.1622 17.5596 36.4459 30.0361C32.1171 30.9458 19.8568 32.2195 5.44595 30.0361C4.88739 36.4043 3.01622 49.1408 0 49.1408" stroke="black" stroke-width="2"/>
<path d="M22.6216 49.9205C26.5315 46.1516 37.7864 40.8751 51.527 49.9205M162.122 49.9205C165.333 46.1516 175.443 40.8751 190.189 49.9205M88.8108 20.6787C122.659 17.8715 148.995 32.2455 157.932 39.7834H77.9189" stroke="black" stroke-width="2"/>
<path d="M35.439 29L30.909 22.55C30.349 22.59 29.909 22.61 29.589 22.61H24.399V29H21.399V8H29.589C32.309 8 34.449 8.65 36.009 9.95C37.569 11.25 38.349 13.04 38.349 15.32C38.349 16.94 37.949 18.32 37.149 19.46C36.349 20.6 35.209 21.43 33.729 21.95L38.709 29H35.439ZM29.499 20.06C31.399 20.06 32.849 19.65 33.849 18.83C34.849 18.01 35.349 16.84 35.349 15.32C35.349 13.8 34.849 12.64 33.849 11.84C32.849 11.02 31.399 10.61 29.499 10.61H24.399V20.06H29.499ZM58.4359 26.39V29H43.1959V8H58.0159V10.61H46.1959V17.06H56.7259V19.61H46.1959V26.39H58.4359ZM67.4636 10.61H60.2636V8H77.6336V10.61H70.4336V29H67.4636V10.61ZM94.941 29L90.411 22.55C89.851 22.59 89.411 22.61 89.091 22.61H83.901V29H80.901V8H89.091C91.811 8 93.951 8.65 95.511 9.95C97.071 11.25 97.851 13.04 97.851 15.32C97.851 16.94 97.451 18.32 96.651 19.46C95.851 20.6 94.711 21.43 93.231 21.95L98.211 29H94.941ZM89.001 20.06C90.901 20.06 92.351 19.65 93.351 18.83C94.351 18.01 94.851 16.84 94.851 15.32C94.851 13.8 94.351 12.64 93.351 11.84C92.351 11.02 90.901 10.61 89.001 10.61H83.901V20.06H89.001ZM112.178 29.24C110.058 29.24 108.148 28.78 106.448 27.86C104.748 26.92 103.408 25.63 102.428 23.99C101.468 22.35 100.988 20.52 100.988 18.5C100.988 16.48 101.468 14.65 102.428 13.01C103.408 11.37 104.748 10.09 106.448 9.17C108.148 8.23 110.058 7.76 112.178 7.76C114.278 7.76 116.178 8.23 117.878 9.17C119.578 10.09 120.908 11.37 121.868 13.01C122.828 14.63 123.308 16.46 123.308 18.5C123.308 20.54 122.828 22.38 121.868 24.02C120.908 25.64 119.578 26.92 117.878 27.86C116.178 28.78 114.278 29.24 112.178 29.24ZM112.178 26.57C113.718 26.57 115.098 26.22 116.318 25.52C117.558 24.82 118.528 23.86 119.228 22.64C119.948 21.4 120.308 20.02 120.308 18.5C120.308 16.98 119.948 15.61 119.228 14.39C118.528 13.15 117.558 12.18 116.318 11.48C115.098 10.78 113.718 10.43 112.178 10.43C110.638 10.43 109.238 10.78 107.978 11.48C106.738 12.18 105.758 13.15 105.038 14.39C104.338 15.61 103.988 16.98 103.988 18.5C103.988 20.02 104.338 21.4 105.038 22.64C105.758 23.86 106.738 24.82 107.978 25.52C109.238 26.22 110.638 26.57 112.178 26.57ZM145.34 29.24C143.24 29.24 141.34 28.78 139.64 27.86C137.96 26.92 136.64 25.64 135.68 24.02C134.72 22.38 134.24 20.54 134.24 18.5C134.24 16.46 134.72 14.63 135.68 13.01C136.64 11.37 137.97 10.09 139.67 9.17C141.37 8.23 143.27 7.76 145.37 7.76C147.01 7.76 148.51 8.04 149.87 8.6C151.23 9.14 152.39 9.95 153.35 11.03L151.4 12.92C149.82 11.26 147.85 10.43 145.49 10.43C143.93 10.43 142.52 10.78 141.26 11.48C140 12.18 139.01 13.15 138.29 14.39C137.59 15.61 137.24 16.98 137.24 18.5C137.24 20.02 137.59 21.4 138.29 22.64C139.01 23.86 140 24.82 141.26 25.52C142.52 26.22 143.93 26.57 145.49 26.57C147.83 26.57 149.8 25.73 151.4 24.05L153.35 25.94C152.39 27.02 151.22 27.84 149.84 28.4C148.48 28.96 146.98 29.24 145.34 29.24ZM170.511 23.75H159.351L157.041 29H153.951L163.461 8H166.431L175.971 29H172.821L170.511 23.75ZM169.461 21.35L164.931 11.06L160.401 21.35H169.461ZM193.144 29L188.614 22.55C188.054 22.59 187.614 22.61 187.294 22.61H182.104V29H179.104V8H187.294C190.014 8 192.154 8.65 193.714 9.95C195.274 11.25 196.054 13.04 196.054 15.32C196.054 16.94 195.654 18.32 194.854 19.46C194.054 20.6 192.914 21.43 191.434 21.95L196.414 29H193.144ZM187.204 20.06C189.104 20.06 190.554 19.65 191.554 18.83C192.554 18.01 193.054 16.84 193.054 15.32C193.054 13.8 192.554 12.64 191.554 11.84C190.554 11.02 189.104 10.61 187.204 10.61H182.104V20.06H187.204ZM63.9009 66L59.3709 59.55C58.8109 59.59 58.3709 59.61 58.0509 59.61H52.8609V66H49.8609V45H58.0509C60.7709 45 62.9109 45.65 64.4709 46.95C66.0309 48.25 66.8109 50.04 66.8109 52.32C66.8109 53.94 66.4109 55.32 65.6109 56.46C64.8109 57.6 63.6709 58.43 62.1909 58.95L67.1709 66H63.9009ZM57.9609 57.06C59.8609 57.06 61.3109 56.65 62.3109 55.83C63.3109 55.01 63.8109 53.84 63.8109 52.32C63.8109 50.8 63.3109 49.64 62.3109 48.84C61.3109 48.02 59.8609 47.61 57.9609 47.61H52.8609V57.06H57.9609ZM86.8978 63.39V66H71.6578V45H86.4778V47.61H74.6578V54.06H85.1878V56.61H74.6578V63.39H86.8978ZM109.815 45V66H107.355L94.7555 50.34V66H91.7555V45H94.2155L106.815 60.66V45H109.815ZM120.271 47.61H113.071V45H130.441V47.61H123.241V66H120.271V47.61ZM146.034 60.75H134.874L132.564 66H129.474L138.984 45H141.954L151.494 66H148.344L146.034 60.75ZM144.984 58.35L140.454 48.06L135.924 58.35H144.984ZM154.627 45H157.627V63.39H168.997V66H154.627V45Z" fill="#ED2626"/>
</svg>
